<svg width="119" height="36" viewBox="0 0 119 36" fill="none" xmlns="http://www.w3.org/2000/svg">
<path fill-rule="evenodd" clip-rule="evenodd" d="M6 12.3137C6 9.00366 8.68156 6.31372 12 6.31372C15.3184 6.31372 18 9.00366 18 12.3137H15C15 10.6629 13.6508 9.31372 12 9.31372C10.3492 9.31372 9 10.6629 9 12.3137H6ZM6 24.3137V21.3137C4.34916 21.3137 3 19.9646 3 18.3137C3 16.6629 4.34916 15.3137 6 15.3137V12.3137C2.68156 12.3137 0 15.0037 0 18.3137C0 21.6322 2.68156 24.3137 6 24.3137ZM18 24.3137V21.3137C19.6508 21.3137 21 19.9646 21 18.3137C21 16.6629 19.6508 15.3137 18 15.3137V12.3137C21.3184 12.3137 24 15.0037 24 18.3137C24 21.6322 21.3184 24.3137 18 24.3137ZM18 24.3137H15C15 25.9646 13.6508 27.3137 12 27.3137C10.3492 27.3137 9 25.9646 9 24.3137H6C6 27.6322 8.68156 30.3137 12 30.3137C15.3184 30.3137 18 27.6322 18 24.3137ZM37.9776 27.709C35.5258 27.709 33.5833 27.0263 32.15 25.6608C30.7167 24.2764 30 22.3042 30 19.744V14.965C30 12.4048 30.7167 10.442 32.15 9.07659C33.5833 7.6922 35.5258 7 37.9776 7C40.4104 7 42.287 7.67323 43.6071 9.01969C44.9462 10.3472 45.6157 12.1772 45.6157 14.5098V14.6805H41.9381V14.3961C41.9381 13.2203 41.608 12.2531 40.9479 11.4945C40.3067 10.736 39.3166 10.3567 37.9776 10.3567C36.6574 10.3567 35.6201 10.7644 34.8657 11.5799C34.1114 12.3953 33.7342 13.5047 33.7342 14.9081V19.8009C33.7342 21.1853 34.1114 22.2947 34.8657 23.1291C35.6201 23.9446 36.6574 24.3523 37.9776 24.3523C39.3166 24.3523 40.3067 23.973 40.9479 23.2144C41.608 22.4369 41.9381 21.4697 41.9381 20.3129V19.8009H45.6157V20.1991C45.6157 22.5317 44.9462 24.3713 43.6071 25.7177C42.287 27.0452 40.4104 27.709 37.9776 27.709ZM47.8813 27.3107V7.39825H51.4458V27.3107H47.8813ZM57.4193 26.8556C58.532 27.4245 59.7862 27.709 61.1818 27.709C62.5774 27.709 63.8315 27.4245 64.9442 26.8556C66.0569 26.2867 66.9339 25.4617 67.5751 24.3807C68.2164 23.2998 68.537 22.0007 68.537 20.4836V20.0284C68.537 18.5113 68.2164 17.2123 67.5751 16.1313C66.9339 15.0503 66.0569 14.2254 64.9442 13.6565C63.8315 13.0875 62.5774 12.8031 61.1818 12.8031C59.7862 12.8031 58.532 13.0875 57.4193 13.6565C56.3066 14.2254 55.4296 15.0503 54.7884 16.1313C54.1472 17.2123 53.8266 18.5113 53.8266 20.0284V20.4836C53.8266 22.0007 54.1472 23.2998 54.7884 24.3807C55.4296 25.4617 56.3066 26.2867 57.4193 26.8556ZM63.8975 23.4705C63.1809 24.1721 62.2756 24.523 61.1818 24.523C60.0879 24.523 59.1827 24.1721 58.466 23.4705C57.7493 22.7498 57.391 21.7257 57.391 20.3982V20.1138C57.391 18.7863 57.7493 17.7717 58.466 17.07C59.1827 16.3494 60.0879 15.9891 61.1818 15.9891C62.2945 15.9891 63.1997 16.3494 63.8975 17.07C64.6142 17.7717 64.9725 18.7863 64.9725 20.1138V20.3982C64.9725 21.7257 64.6142 22.7498 63.8975 23.4705ZM70.937 27.3107V13.2013H74.4449V15.0503H74.9541C75.1804 14.5573 75.6047 14.0926 76.2271 13.6565C76.8494 13.2013 77.7924 12.9737 79.056 12.9737C80.1499 12.9737 81.1023 13.2298 81.9132 13.7418C82.743 14.2349 83.3843 14.9271 83.8369 15.8184C84.2895 16.6907 84.5158 17.7148 84.5158 18.8906V27.3107H80.9514V19.1751C80.9514 18.1131 80.6874 17.3166 80.1593 16.7856C79.6501 16.2546 78.9146 15.9891 77.9527 15.9891C76.8589 15.9891 76.0102 16.3589 75.4067 17.0985C74.8032 17.8191 74.5014 18.8337 74.5014 20.1422V27.3107H70.937ZM87.479 13.2013V27.3107H91.0434V13.2013H87.479ZM87.6204 10.9256C88.0731 11.3428 88.62 11.5514 89.2612 11.5514C89.9213 11.5514 90.4682 11.3428 90.902 10.9256C91.3358 10.5084 91.5526 9.95842 91.5526 9.27571C91.5526 8.593 91.3358 8.04303 90.902 7.62582C90.4682 7.20861 89.9213 7 89.2612 7C88.62 7 88.0731 7.20861 87.6204 7.62582C87.1867 8.04303 86.9698 8.593 86.9698 9.27571C86.9698 9.95842 87.1867 10.5084 87.6204 10.9256ZM96.4229 27.3107V16.1597H92.8585V13.2013H96.4229V10.5842C96.4229 9.61707 96.7058 8.84901 97.2716 8.28009C97.8562 7.6922 98.6106 7.39825 99.5347 7.39825H103.212V10.3567H100.779C100.251 10.3567 99.9873 10.6411 99.9873 11.2101V13.2013H103.665V16.1597H99.9873V27.3107H96.4229ZM107.062 29.8709V33H115.888C116.831 33 117.586 32.7061 118.151 32.1182C118.717 31.5492 119 30.7812 119 29.814V13.2013H115.436V20.3698C115.436 21.6783 115.134 22.7024 114.53 23.442C113.927 24.1627 113.078 24.523 111.984 24.523C111.022 24.523 110.277 24.2575 109.749 23.7265C109.24 23.1955 108.986 22.399 108.986 21.337V13.2013H105.421V21.6214C105.421 22.7783 105.647 23.8023 106.1 24.6937C106.553 25.585 107.185 26.2867 107.995 26.7987C108.825 27.2918 109.787 27.5383 110.881 27.5383C111.73 27.5383 112.427 27.434 112.974 27.2254C113.521 27.0168 113.955 26.7513 114.276 26.4289C114.596 26.1065 114.832 25.7841 114.983 25.4617H115.492V29.0175C115.492 29.5864 115.228 29.8709 114.7 29.8709H107.062ZM12 23.9115C15.1006 23.9115 17.5978 21.3975 17.5978 18.3137C17.5978 15.2132 15.1006 12.716 12 12.716C8.89944 12.716 6.40223 15.2132 6.40223 18.3137C6.40223 21.3975 8.89944 23.9115 12 23.9115ZM12 21.1126C10.4581 21.1126 9.20112 19.8556 9.20112 18.3137C9.20112 16.7718 10.4581 15.5148 12 15.5148C13.5419 15.5148 14.7989 16.7718 14.7989 18.3137C14.7989 19.8556 13.5419 21.1126 12 21.1126Z" fill="#282828"/>
</svg>
